<svg width="32" height="30" viewBox="0 0 32 30" fill="none" xmlns="http://www.w3.org/2000/svg">
<g clip-path="url(#clip0_332_2)">
<path d="M15.1837 29.6775C23.389 29.6775 30.0408 23.1062 30.0408 15.0001C30.0408 6.89394 23.389 0.322632 15.1837 0.322632C6.9783 0.322632 0.32653 6.89394 0.32653 15.0001C0.32653 23.1062 6.9783 29.6775 15.1837 29.6775Z" fill="white" stroke="black"/>
<path d="M19.9184 15.4839C20.4594 15.4839 20.898 14.3285 20.898 12.9033C20.898 11.478 20.4594 10.3226 19.9184 10.3226C19.3774 10.3226 18.9388 11.478 18.9388 12.9033C18.9388 14.3285 19.3774 15.4839 19.9184 15.4839Z" fill="black"/>
<path d="M19.9184 15.4839C20.4594 15.4839 20.898 14.3285 20.898 12.9033C20.898 11.478 20.4594 10.3226 19.9184 10.3226C19.3774 10.3226 18.9388 11.478 18.9388 12.9033C18.9388 14.3285 19.3774 15.4839 19.9184 15.4839Z" fill="black"/>
<path d="M19.9184 15.4839C20.4594 15.4839 20.898 14.3285 20.898 12.9033C20.898 11.478 20.4594 10.3226 19.9184 10.3226C19.3774 10.3226 18.9388 11.478 18.9388 12.9033C18.9388 14.3285 19.3774 15.4839 19.9184 15.4839Z" fill="black"/>
<path d="M25.4694 15.4839C26.0104 15.4839 26.449 14.3285 26.449 12.9033C26.449 11.478 26.0104 10.3226 25.4694 10.3226C24.9284 10.3226 24.4898 11.478 24.4898 12.9033C24.4898 14.3285 24.9284 15.4839 25.4694 15.4839Z" fill="black"/>
<path d="M25.4694 15.4839C26.0104 15.4839 26.449 14.3285 26.449 12.9033C26.449 11.478 26.0104 10.3226 25.4694 10.3226C24.9284 10.3226 24.4898 11.478 24.4898 12.9033C24.4898 14.3285 24.9284 15.4839 25.4694 15.4839Z" fill="black"/>
<path d="M25.4694 15.4839C26.0104 15.4839 26.449 14.3285 26.449 12.9033C26.449 11.478 26.0104 10.3226 25.4694 10.3226C24.9284 10.3226 24.4898 11.478 24.4898 12.9033C24.4898 14.3285 24.9284 15.4839 25.4694 15.4839Z" fill="black"/>
<path d="M15.0204 21.6129C20.2449 24.5161 26.6122 24.0322 31.3469 20.1613" stroke="black" stroke-linecap="round"/>
</g>
<defs>
<clipPath id="clip0_332_2">
<rect width="32" height="30" fill="white"/>
</clipPath>
</defs>
</svg>
